<svg width="400" height="120" viewBox="0 0 400 120" xmlns="http://www.w3.org/2000/svg">
  <g>
    <title>Layer 1</title>
    <g transform="rotate(-50 274 25)" stroke="null" class="path" fill="#A16C41" id="svg_20">
      <path
        class="animate-wiggle origin-center"
        stroke="null"
        d="m276.95628,39.99111l-16.05046,-7.14612l0,0q-0.4736,-1.0243 -0.52406,-2.15072l0,0l0,0q-0.05047,-1.12642 0.46768,-2.29021l0,0l0,0q0.43179,-0.96982 1.31345,-1.71029l0,0l0,0q0.88166,-0.74047 1.92755,-1.26256l0,0l12.7015,-6.08175l-8.92231,-3.97247l0,0q-0.05346,-0.66294 0.04686,-1.60602l0,0l0,0q0.10033,-0.94309 0.53212,-1.9129l0,0l0,0q0.75563,-1.69718 1.84188,-2.11415l0,0l0,0q1.08624,-0.41697 2.347,0.14436l0,0l15.2746,6.80069l0,0q0.4736,1.0243 0.52406,2.15072l0,0l0,0q0.05047,1.12642 -0.46768,2.29021l0,0l0,0q-0.43179,0.96982 -1.31345,1.71029l0,0l0,0q-0.88166,0.74047 -1.92755,1.26256l0,0l-12.50753,6.16811l9.5042,4.23154l0,0q0.05346,0.66294 -0.04686,1.60602l0,0l0,0q-0.10033,0.94309 -0.53212,1.9129l0,0l0,0q-0.75563,1.69718 -1.84188,2.11415l0,0l0,0q-1.08624,0.41697 -2.347,-0.14436l0,0"
        stroke-width="none"
        id="svg_21"
      />
    </g>
    <g stroke-width="0" stroke="null" id="svg_14">
      <defs
        stroke="null"
        transform="translate(0 -4) translate(0 -1) translate(0 -1) translate(0 -1) translate(0 -1) translate(0 1) translate(0 1) translate(0 1) translate(0 1) translate(0 1) translate(0 1) translate(0 1) translate(0 1) translate(0 0.963739) translate(0 1.04019) translate(0 -1.04003) translate(0 0.454545) translate(0 0.454545) translate(0 0.454545) translate(0 0.454545) translate(0 1.02873) translate(-10.4545 4.0909) translate(288.326 374.99) translate(-391.474 0) translate(0 -541.786) translate(-271.471 -357.055) scale(0.301848 0.301848) translate(271.471 357.055) translate(55.8392 59.4165) scale(0.0844101 0.0844101) translate(-55.8392 -59.4165)"
      >
        <clipPath stroke="null" id="svg_8">
          <rect stroke="null" x="1379" y="605" width="1192" height="1191" id="svg_10" />
        </clipPath>
      </defs>
      <g stroke="null" id="svg_16">
        <title stroke="null">Layer 1</title>
        <g stroke="null" id="svg_1">
          <path
            stroke="#FFCB03"
            d="m85.73278,41.02857c3.17044,4.95319 -23.35374,10.6458 -32.81696,20.14025c-9.46322,9.49529 -15.73151,35.29524 -21.23758,33.91429c-5.50523,-1.38179 4.0213,-32.53756 13.03039,-41.54666c9.00909,-9.00825 37.85287,-17.46023 41.02416,-12.50789l-0.00001,0.00001z"
            stroke-width="0"
            stroke-miterlimit="8"
            fill="#A16C41"
            fill-rule="evenodd"
            id="svg_6"
          />
          <path
            stroke="#FFCB03"
            d="m70.01309,27.30324c3.17129,4.95302 -23.35374,10.64521 -32.81612,20.14051c-9.46322,9.49445 -15.73151,35.2944 -21.23758,33.91345c-5.50607,-1.38095 4.0213,-32.53672 13.03039,-41.54581c9.00909,-9.00934 37.85287,-17.46108 41.02331,-12.50814l0,-0.00001z"
            stroke-width="0"
            stroke-miterlimit="8"
            fill="#A16C41"
            fill-rule="evenodd"
            id="svg_4"
          />
          <path
            stroke="#A16C41"
            d="m7.8352,41.37972c4.52269,-4.52354 49.14525,-17.573 53.20876,-15.02981c4.0635,2.54319 1.66372,29.32044 2.70956,33.59244c1.04584,4.272 7.65515,-2.07818 9.58392,0.5723c1.92962,2.64963 -2.62178,11.23076 -1.90176,14.12012c0.72002,2.88936 9.69788,-1.95747 11.03831,0.12155c0.87955,1.10324 1.61645,21.11941 -3.70729,21.479c-5.32459,0.35959 -3.35277,-10.71671 -6.1383,-13.01097c-1.78274,-0.38997 -8.68496,3.85248 -10.29803,1.79034c-0.93358,-0.96396 1.63502,-11.19362 -2.01656,-11.05097c-3.65158,0.14265 -13.28953,4.30576 -16.36712,1.81229c-3.07759,-2.49263 0.39504,-15.91975 -2.09928,-16.77313c-5.06292,-1.47464 -25.42601,8.59295 -28.29933,7.03052c-2.87416,-1.56328 -10.23641,-20.12928 -5.71288,-24.65366l0,-0.00002z"
            stroke-width="NaN"
            stroke-miterlimit="8"
            fill="#FFCB03"
            fill-rule="evenodd"
            id="svg_3"
          />
          <path
            stroke="null"
            d="m63.00649,82.38277c-1.62743,-0.72677 2.52808,-1.82579 3.29199,-4.14876c0.26758,-1.57087 -1.81988,-6.53756 -1.25433,-7.22297c0.5647,-0.68457 2.90455,-0.19077 3.62457,-1.48646c0.72002,-1.2957 0.88124,-4.142 1.55737,-5.42335c0.67697,-1.28135 2.42426,-2.24109 2.93325,-1.18343c0.50984,1.05766 -1.73716,6.25479 0.12239,7.52938c1.8604,1.27544 9.69872,-1.95747 11.03915,0.12239c0.87955,1.10324 1.61645,21.11941 -3.70814,21.479c-5.32375,0.35874 -3.35277,-10.71671 -6.13746,-13.01097c-1.78274,-0.39082 -9.85572,5.40731 -11.4688,3.34517l0.00001,0z"
            fill="#A16C41"
            fill-rule="evenodd"
            id="svg_2"
          />
        </g>
        <g stroke="null" id="svg_18" />
      </g>
    </g>
    <g id="svg_12">
      <path
        id="svg_5"
        fill="#A16C41"
        d="m108.5167,75.13743l-3.22902,-1.07634l0,0q-3.38279,-1.15322 -6.15052,-2.34489l0,0l0,0q-2.76773,-1.19166 -4.76665,-2.88306l0,0l0,0q-1.99892,-1.69139 -3.1137,-4.03628l0,0l0,0q-1.11478,-2.34489 -1.11478,-5.72767l0,0l0,0q0,-6.53493 5.03574,-10.45588l0,0l0,0q5.03574,-3.92096 14.10775,-3.92096l0,0l0,0q3.3059,0 6.15052,0.46129l0,0l0,0q2.84462,0.46129 4.88198,1.42231l0,0l0,0q2.03736,0.96102 3.19058,2.46021l0,0l0,0q1.15322,1.49919 1.15322,3.49811l0,0l0,0q0,1.99892 -0.92258,3.42123l0,0l0,0q-0.92258,1.42231 -2.22956,2.42177l0,0l0,0q-1.69139,-1.07634 -4.53601,-1.8836l0,0l0,0q-2.84462,-0.80726 -6.2274,-0.80726l0,0l0,0q-3.45967,0 -5.07418,0.96102l0,0l0,0q-1.61451,0.96102 -1.61451,2.42177l0,0l0,0q0,1.15322 0.99946,1.8836l0,0l0,0q0.99946,0.73037 2.99838,1.34543l0,0l4.07472,1.30699l0,0q7.22686,2.30644 11.10938,5.88143l0,0l0,0q3.88252,3.57499 3.88252,9.72551l0,0l0,0q0,6.53493 -5.15106,10.57121l0,0l0,0q-5.15106,4.03628 -15.14565,4.03628l0,0l0,0q-3.53655,0 -6.57337,-0.57661l0,0l0,0q-3.03682,-0.57661 -5.30482,-1.69139l0,0l0,0q-2.268,-1.11478 -3.53655,-2.76773l0,0l0,0q-1.26854,-1.65295 -1.26854,-3.80563l0,0l0,0q0,-2.22956 1.30699,-3.80563l0,0l0,0q1.30699,-1.57607 2.84462,-2.42177l0,0l0,0q2.15268,1.69139 5.26638,2.9215l0,0l0,0q3.1137,1.2301 6.80401,1.2301l0,0l0,0q3.76719,0 5.30482,-1.15322l0,0l0,0q1.53763,-1.15322 1.53763,-2.69085l0,0l0,0q0,-1.53763 -1.2301,-2.34489l0,0l0,0q-1.2301,-0.80726 -3.45967,-1.57607l0,0"
        stroke="null"
      />
      <path
        id="svg_7"
        fill="#A16C41"
        d="m143.66961,50.94043l0,42.224l0,0q-0.8008,0.1456 -2.366,0.4004l0,0l0,0q-1.5652,0.2548 -3.1668,0.2548l0,0l0,0q-1.6016,0 -2.8756,-0.2184l0,0l0,0q-1.274,-0.2184 -2.1476,-0.8736l0,0l0,0q-0.8736,-0.6552 -1.3468,-1.7836l0,0l0,0q-0.4732,-1.1284 -0.4732,-2.9484l0,0l0,-42.224l0,0q0.8008,-0.1456 2.366,-0.4004l0,0l0,0q1.5652,-0.2548 3.1668,-0.2548l0,0l0,0q1.6016,0 2.8756,0.2184l0,0l0,0q1.274,0.2184 2.1476,0.8736l0,0l0,0q0.8736,0.6552 1.3468,1.7836l0,0l0,0q0.4732,1.1284 0.4732,2.9484l0,0"
      />
      <path
        id="svg_9"
        fill="#A16C41"
        d="m167.16882,93.81963l0,0l0,0q-4.2952,0 -7.9716,-1.2012l0,0l0,0q-3.6764,-1.2012 -6.4064,-3.6036l0,0l0,0q-2.73,-2.4024 -4.2952,-6.0424l0,0l0,0q-1.5652,-3.64 -1.5652,-8.5176l0,0l0,0q0,-4.8048 1.5652,-8.2628l0,0l0,0q1.5652,-3.458 4.1132,-5.6784l0,0l0,0q2.548,-2.2204 5.824,-3.276l0,0l0,0q3.276,-1.0556 6.6976,-1.0556l0,0l0,0q3.8584,0 7.0252,1.1648l0,0l0,0q3.1668,1.1648 5.46,3.2032l0,0l0,0q2.2932,2.0384 3.5672,4.8776l0,0l0,0q1.274,2.8392 1.274,6.188l0,0l0,0q0,2.4752 -1.3832,3.7856l0,0l0,0q-1.3832,1.3104 -3.8584,1.6744l0,0l-17.9816,2.6936l0,0q0.8008,2.4024 3.276,3.6036l0,0l0,0q2.4752,1.2012 5.6784,1.2012l0,0l0,0q2.9848,0 5.642,-0.7644l0,0l0,0q2.6572,-0.7644 4.3316,-1.7836l0,0l0,0q1.1648,0.728 1.9656,2.0384l0,0l0,0q0.8008,1.3104 0.8008,2.7664l0,0l0,0q0,3.276 -3.0576,4.8776l0,0l0,0q-2.3296,1.2376 -5.2416,1.6744l0,0l0,0q-2.912,0.4368 -5.46,0.4368zm-2.0384,-28.6104l0,0l0,0q-1.7472,0 -3.0212,0.5824l0,0l0,0q-1.274,0.5824 -2.0748,1.4924l0,0l0,0q-0.8008,0.91 -1.2012,2.0384l0,0l0,0q-0.4004,1.1284 -0.4732,2.2932l0,0l12.4488,-2.0384l0,0q-0.2184,-1.456 -1.6016,-2.912l0,0l0,0q-1.3832,-1.456 -4.0768,-1.456"
      />
      <path
        id="svg_11"
        fill="#A16C41"
        d="m207.13602,93.81963l0,0l0,0q-4.2952,0 -7.9716,-1.2012l0,0l0,0q-3.6764,-1.2012 -6.4064,-3.6036l0,0l0,0q-2.73,-2.4024 -4.2952,-6.0424l0,0l0,0q-1.5652,-3.64 -1.5652,-8.5176l0,0l0,0q0,-4.8048 1.5652,-8.2628l0,0l0,0q1.5652,-3.458 4.1132,-5.6784l0,0l0,0q2.548,-2.2204 5.824,-3.276l0,0l0,0q3.276,-1.0556 6.6976,-1.0556l0,0l0,0q3.8584,0 7.0252,1.1648l0,0l0,0q3.1668,1.1648 5.46,3.2032l0,0l0,0q2.2932,2.0384 3.5672,4.8776l0,0l0,0q1.274,2.8392 1.274,6.188l0,0l0,0q0,2.4752 -1.3832,3.7856l0,0l0,0q-1.3832,1.3104 -3.8584,1.6744l0,0l-17.9816,2.6936l0,0q0.8008,2.4024 3.276,3.6036l0,0l0,0q2.4752,1.2012 5.6784,1.2012l0,0l0,0q2.9848,0 5.642,-0.7644l0,0l0,0q2.6572,-0.7644 4.3316,-1.7836l0,0l0,0q1.1648,0.728 1.9656,2.0384l0,0l0,0q0.8008,1.3104 0.8008,2.7664l0,0l0,0q0,3.276 -3.0576,4.8776l0,0l0,0q-2.3296,1.2376 -5.2416,1.6744l0,0l0,0q-2.912,0.4368 -5.46,0.4368zm-2.0384,-28.6104l0,0l0,0q-1.7472,0 -3.0212,0.5824l0,0l0,0q-1.274,0.5824 -2.0748,1.4924l0,0l0,0q-0.8008,0.91 -1.2012,2.0384l0,0l0,0q-0.4004,1.1284 -0.4732,2.2932l0,0l12.4488,-2.0384l0,0q-0.2184,-1.456 -1.6016,-2.912l0,0l0,0q-1.3832,-1.456 -4.0768,-1.456"
      />
      <path
        transform="rotate(-34 248.749 59.9999)"
        id="svg_13"
        fill="#A16C41"
        d="m242.19014,58.54241l4.82791,0l0,0q3.82589,0 5.87548,-1.77631l0,0l0,0q2.04959,-1.77631 2.04959,-5.42001l0,0l0,0q0,-3.46152 -2.14068,-5.32892l0,0l0,0q-2.14068,-1.8674 -6.23985,-1.8674l0,0l0,0q-1.45748,0 -2.41396,0.04555l0,0l0,0q-0.95647,0.04555 -1.95849,0.22773l0,0l0,14.11937l0,-0.00001zm0.09109,12.4797l0,16.76105l0,0q-1.00202,0.27328 -3.1427,0.54656l0,0l0,0q-2.14068,0.27328 -4.23581,0.27328l0,0l0,0q-2.09513,0 -3.68925,-0.31882l0,0l0,0q-1.59412,-0.31882 -2.68723,-1.13866l0,0l0,0q-1.09311,-0.81983 -1.63967,-2.27732l0,0l0,0q-0.54656,-1.45748 -0.54656,-3.82589l0,0l0,-42.90466l0,0q0,-1.91295 1.04757,-2.96051l0,0l0,0q1.04757,-1.04757 2.86942,-1.68521l0,0l0,0q3.09715,-1.09311 7.05968,-1.59412l0,0l0,0q3.96253,-0.50101 7.97061,-0.50101l0,0l0,0q12.57079,0 19.22056,5.37447l0,0l0,0q6.64977,5.37447 6.64977,14.57483l0,0l0,0q0,4.46354 -1.41194,8.0617l0,0l0,0q-1.41194,3.59816 -4.19026,6.1943l0,0l0,0q-2.77833,2.59614 -7.01414,4.00808l0,0l0,0q-4.23581,1.41194 -9.79246,1.41194l0,0l-6.46758,0"
        stroke="null"
      />
      <path
        id="svg_15"
        fill="#A16C41"
        d="m303.21682,74.96443l0,0l0,0q0,4.5136 -1.3832,8.0444l0,0l0,0q-1.3832,3.5308 -3.8948,5.9332l0,0l0,0q-2.5116,2.4024 -6.006,3.64l0,0l0,0q-3.4944,1.2376 -7.7896,1.2376l0,0l0,0q-4.2952,0 -7.7896,-1.3104l0,0l0,0q-3.4944,-1.3104 -6.006,-3.7492l0,0l0,0q-2.5116,-2.4388 -3.8948,-5.9332l0,0l0,0q-1.3832,-3.4944 -1.3832,-7.8624l0,0l0,0q0,-4.2952 1.3832,-7.7896l0,0l0,0q1.3832,-3.4944 3.8948,-5.9332l0,0l0,0q2.5116,-2.4388 6.006,-3.7492l0,0l0,0q3.4944,-1.3104 7.7896,-1.3104l0,0l0,0q4.2952,0 7.7896,1.3468l0,0l0,0q3.4944,1.3468 6.006,3.7856l0,0l0,0q2.5116,2.4388 3.8948,5.9332l0,0l0,0q1.3832,3.4944 1.3832,7.7168zm-25.48,0l0,0l0,0q0,4.4408 1.7108,6.8068l0,0l0,0q1.7108,2.366 4.7684,2.366l0,0l0,0q3.0576,0 4.6956,-2.4024l0,0l0,0q1.638,-2.4024 1.638,-6.7704l0,0l0,0q0,-4.368 -1.6744,-6.734l0,0l0,0q-1.6744,-2.366 -4.732,-2.366l0,0l0,0q-3.0576,0 -4.732,2.366l0,0l0,0q-1.6744,2.366 -1.6744,6.734"
      />
      <path
        id="svg_17"
        fill="#A16C41"
        d="m331.19122,75.11003l11.648,11.648l0,0q-0.364,3.4216 -2.002,5.2416l0,0l0,0q-1.638,1.82 -4.7684,1.82l0,0l0,0q-2.3296,0 -4.1496,-1.1284l0,0l0,0q-1.82,-1.1284 -3.9312,-3.822l0,0l-7.2072,-9.0272l0,13.2496l0,0q-0.8008,0.1456 -2.366,0.4004l0,0l0,0q-1.5652,0.2548 -3.1668,0.2548l0,0l0,0q-1.6016,0 -2.8756,-0.2184l0,0l0,0q-1.274,-0.2184 -2.1476,-0.8736l0,0l0,0q-0.8736,-0.6552 -1.3468,-1.7836l0,0l0,0q-0.4732,-1.1284 -0.4732,-2.9484l0,0l0,-42.1512l0,0q0.8008,-0.2184 2.366,-0.4732l0,0l0,0q1.5652,-0.2548 3.1668,-0.2548l0,0l0,0q1.6016,0 2.8756,0.2184l0,0l0,0q1.274,0.2184 2.1476,0.8736l0,0l0,0q0.8736,0.6552 1.3468,1.7836l0,0l0,0q0.4732,1.1284 0.4732,2.9484l0,0l0,19.2192l12.5216,-12.8128l0,0q3.7856,0 6.0788,1.6744l0,0l0,0q2.2932,1.6744 2.2932,4.2224l0,0l0,0q0,1.092 -0.364,2.002l0,0l0,0q-0.364,0.91 -1.1284,1.8564l0,0l0,0q-0.7644,0.9464 -1.9656,2.002l0,0l0,0q-1.2012,1.0556 -2.8028,2.4388l0,0l-4.2224,3.64"
      />
      <path
        id="svg_19"
        fill="#A16C41"
        d="m366.77122,93.81963l0,0l0,0q-4.2952,0 -7.9716,-1.2012l0,0l0,0q-3.6764,-1.2012 -6.4064,-3.6036l0,0l0,0q-2.73,-2.4024 -4.2952,-6.0424l0,0l0,0q-1.5652,-3.64 -1.5652,-8.5176l0,0l0,0q0,-4.8048 1.5652,-8.2628l0,0l0,0q1.5652,-3.458 4.1132,-5.6784l0,0l0,0q2.548,-2.2204 5.824,-3.276l0,0l0,0q3.276,-1.0556 6.6976,-1.0556l0,0l0,0q3.8584,0 7.0252,1.1648l0,0l0,0q3.1668,1.1648 5.46,3.2032l0,0l0,0q2.2932,2.0384 3.5672,4.8776l0,0l0,0q1.274,2.8392 1.274,6.188l0,0l0,0q0,2.4752 -1.3832,3.7856l0,0l0,0q-1.3832,1.3104 -3.8584,1.6744l0,0l-17.9816,2.6936l0,0q0.8008,2.4024 3.276,3.6036l0,0l0,0q2.4752,1.2012 5.6784,1.2012l0,0l0,0q2.9848,0 5.642,-0.7644l0,0l0,0q2.6572,-0.7644 4.3316,-1.7836l0,0l0,0q1.1648,0.728 1.9656,2.0384l0,0l0,0q0.8008,1.3104 0.8008,2.7664l0,0l0,0q0,3.276 -3.0576,4.8776l0,0l0,0q-2.3296,1.2376 -5.2416,1.6744l0,0l0,0q-2.912,0.4368 -5.46,0.4368zm-2.0384,-28.6104l0,0l0,0q-1.7472,0 -3.0212,0.5824l0,0l0,0q-1.274,0.5824 -2.0748,1.4924l0,0l0,0q-0.8008,0.91 -1.2012,2.0384l0,0l0,0q-0.4004,1.1284 -0.4732,2.2932l0,0l12.4488,-2.0384l0,0q-0.2184,-1.456 -1.6016,-2.912l0,0l0,0q-1.3832,-1.456 -4.0768,-1.456"
      />
    </g>
  </g>
</svg>
