<svg width="1200" height="1200" xmlns="http://www.w3.org/2000/svg" stroke="null" style="vector-effect: non-scaling-stroke;" xml:space="preserve">
 <defs stroke="null">
  <clipPath stroke="null" style="vector-effect: non-scaling-stroke;" id="clip0">
   <rect stroke="null" style="vector-effect: non-scaling-stroke;" id="svg_1" height="1191" width="1192" y="605" x="1379"/>
  </clipPath>
 </defs>
 <g stroke="null">
  <title stroke="null">Layer 1</title>
  <g stroke="null" id="svg_15">
   <path stroke="#FFCB03" id="svg_4" fill-rule="evenodd" fill="#A16C41" stroke-miterlimit="8" stroke-width="0" d="m1059.84673,364.71027c37.56,58.68 -276.67,126.12 -388.78,238.6c-112.11,112.49 -186.37,418.14 -251.6,401.78c-65.22,-16.37 47.64,-385.47 154.37,-492.2c106.73,-106.72 448.44,-206.85 486.01,-148.18z"/>
   <path stroke="#FFCB03" id="svg_5" fill-rule="evenodd" fill="#A16C41" stroke-miterlimit="8" stroke-width="0" d="m873.61673,202.10727c37.57,58.678 -276.67,126.113 -388.77,238.603c-112.11,112.48 -186.37,418.13 -251.6,401.77c-65.23,-16.36 47.64,-385.46 154.37,-492.19c106.73,-106.733 448.44,-206.86 486,-148.183z"/>
   <path stroke="#A16C41" id="svg_6" fill-rule="evenodd" fill="#FFCB03" stroke-miterlimit="8" stroke-width="NaN" d="m137.00012,368.87029c53.58,-53.59 582.22,-208.186 630.36,-178.057c48.14,30.129 19.71,347.357 32.1,397.967c12.39,50.61 90.69,-24.62 113.54,6.78c22.86,31.39 -31.06,133.05 -22.53,167.28c8.53,34.23 114.89,-23.19 130.77,1.44c10.42,13.07 19.15,250.2 -43.92,254.46c-63.08,4.26 -39.72,-126.96 -72.72,-154.14c-21.12,-4.62 -102.89,45.64 -122,21.21c-11.06,-11.42 19.37,-132.61 -23.89,-130.92c-43.26,1.69 -157.44,51.01 -193.9,21.47c-36.46,-29.53 4.68,-188.6 -24.87,-198.71c-59.98,-17.47 -301.22,101.8 -335.26,83.29c-34.05,-18.52 -121.27,-238.47 -67.68,-292.07z"/>
   <path stroke="null" id="svg_7" fill-rule="evenodd" fill="#A16C41" d="m790.61014,854.63027c-19.28,-8.61 29.95,-21.63 39,-49.15c3.17,-18.61 -21.56,-77.45 -14.86,-85.57c6.69,-8.11 34.41,-2.26 42.94,-17.61c8.53,-15.35 10.44,-49.07 18.45,-64.25c8.02,-15.18 28.72,-26.55 34.75,-14.02c6.04,12.53 -20.58,74.1 1.45,89.2c22.04,15.11 114.9,-23.19 130.78,1.45c10.42,13.07 19.15,250.2 -43.93,254.46c-63.07,4.25 -39.72,-126.96 -72.71,-154.14c-21.12,-4.63 -116.76,64.06 -135.87,39.63z"/>
  </g>
  <g stroke="null"/>
 </g>
</svg>