<svg
  width="1192"
  height="1191"
  viewBox="0 0 1192 1191"
  xmlns="http://www.w3.org/2000/svg"
  xml:space="preserve"
>
  <g>
    <title>Layer 1</title>
    <path
      id="svg_4"
      fill-rule="evenodd"
      fill="#A16C41"
      stroke-miterlimit="8"
      stroke-width="0"
      stroke="#FFCB03"
      d="m1028.18,464.71c37.56,58.68 -276.67,126.12 -388.78,238.6c-112.11,112.49 -186.37,418.14 -251.6,401.78c-65.22,-16.37 47.64,-385.47 154.37,-492.2c106.73,-106.72 448.44,-206.85 486.01,-148.18z"
    />
    <path
      id="svg_5"
      fill-rule="evenodd"
      fill="#A16C41"
      stroke-miterlimit="8"
      stroke-width="0"
      stroke="#FFCB03"
      d="m841.95,302.107c37.57,58.678 -276.67,126.113 -388.77,238.603c-112.11,112.48 -186.37,418.13 -251.6,401.77c-65.23,-16.36 47.64,-385.46 154.37,-492.19c106.73,-106.733 448.44,-206.86 486,-148.183z"
    />
    <path
      id="svg_6"
      fill-rule="evenodd"
      fill="#FFCB03"
      stroke-miterlimit="8"
      stroke-width="13.75"
      stroke="#A16C41"
      d="m97,473.87c53.58,-53.59 582.22,-208.186 630.36,-178.057c48.14,30.129 19.71,347.357 32.1,397.967c12.39,50.61 90.69,-24.62 113.54,6.78c22.86,31.39 -31.06,133.05 -22.53,167.28c8.53,34.23 114.89,-23.19 130.77,1.44c10.42,13.07 19.15,250.2 -43.92,254.46c-63.08,4.26 -39.72,-126.96 -72.72,-154.14c-21.12,-4.62 -102.89,45.64 -122,21.21c-11.06,-11.42 19.37,-132.61 -23.89,-130.92c-43.26,1.69 -157.44,51.01 -193.9,21.47c-36.46,-29.53 4.68,-188.6 -24.87,-198.71c-59.98,-17.47 -301.22,101.8 -335.26,83.29c-34.05,-18.52 -121.27,-238.47 -67.68,-292.07z"
    />
    <path
      id="svg_7"
      fill-rule="evenodd"
      fill="#A16C41"
      d="m755.61,954.63c-19.28,-8.61 29.95,-21.63 39,-49.15c3.17,-18.61 -21.56,-77.45 -14.86,-85.57c6.69,-8.11 34.41,-2.26 42.94,-17.61c8.53,-15.35 10.44,-49.07 18.45,-64.25c8.02,-15.18 28.72,-26.55 34.75,-14.02c6.04,12.53 -20.58,74.1 1.45,89.2c22.04,15.11 114.9,-23.19 130.78,1.45c10.42,13.07 19.15,250.2 -43.93,254.46c-63.07,4.25 -39.72,-126.96 -72.71,-154.14c-21.12,-4.63 -116.76,64.06 -135.87,39.63z"
    />
    <path
      id="svg_8"
      fill-rule="evenodd"
      fill="#A16C41"
      d="m1109.12,269.117c-5.91,-15.577 -23.99,-23.187 -40.28,-16.956l-85.45,32.584l51.84,-185.086c1.83,-6.486 1.53,-13.176 -0.81,-19.407c-6.27,-16.496 -25.41,-24.565 -42.73,-17.926l-141.81,54.034c-7.84,2.962 -14.1,8.682 -17.72,15.986c-3.72,7.558 -4.17,15.985 -1.27,23.697c5.9,15.628 24.08,23.289 40.48,17.058l82.64,-31.511l-52.29,184.063c-1.89,6.64 -1.63,13.483 0.76,19.816c4.84,12.768 17.32,20.531 30.76,20.531c4.17,0 8.45,-0.766 12.63,-2.349l144.41,-55.056c16.29,-6.231 24.74,-23.953 18.84,-39.478z"
    />
  </g>
</svg>
