<?xml version="1.0" encoding="UTF-8"?>
<svg id="_圖層_2" data-name="圖層 2" xmlns="http://www.w3.org/2000/svg" viewBox="0 0 495.33 319.43">
  <defs>
    <style>
      .cls-1 {
        fill: #fff;
      }

      .cls-2 {
        fill: #01678e;
      }

      .cls-3 {
        fill: #c05665;
      }

      .cls-4 {
        fill: #cfd2cf;
      }

      .cls-5 {
        fill: #f3e3c9;
      }

      .cls-6 {
        fill: #e8ebe8;
      }

      .cls-7 {
        fill: #015d78;
      }

      .cls-8 {
        opacity: 0.3;
      }

      .cls-9 {
        fill: #474746;
      }

      .cls-10 {
        fill: #ee9696;
      }

      .cls-11 {
        fill: #faefdc;
      }
    </style>
  </defs>
  <path
    class="cls-8"
    d="m438.89,142.4c-.43-29.4-4.75-53.99-27.01-75.23,0-.03,0-.05-.01-.08-.56-.53-1.17-1.04-1.74-1.57-.86-.8-1.74-1.59-2.62-2.37-1.21-1.06-2.44-2.11-3.69-3.15-.29-.23-.57-.47-.86-.7-30.96-25.38-75.2-43.23-123.94-42.51-67.93,1-125.89,32.75-151.4,77.49-10,.5-23.54,4.36-37.44,11.23-10.78,5.33-20.73,9.71-27.85,14.51-2.1-.53-17.39,19.02-16.3,22.17-7.68,8.11-13.78,18.21-17.06,29.54-9.99,5.86-19.06,13.46-26.76,23.66-.47.62-.95,1.2-1.41,1.84-1.14,1.6-1.04,3.78.15,5.34,6.07,8.04,13.98,13.59,24.71,15.35,4.94,12.77,12.96,25.28,24.61,37.48-1.83,7.55-3.17,15.17-3.13,22.93,0,.97.29,1.86.7,2.7.08.16.15.31.24.46.18.29.36.57.58.83.19.23.4.43.62.63.19.17.36.34.57.49.47.34.98.62,1.56.82,18.05,6.14,36.12,2.84,54.22-9.79,2.12.08,4.21.05,6.3-.04.75-.03,1.5-.12,2.25-.17,1.3-.1,2.61-.21,3.9-.38.93-.12,1.85-.28,2.77-.44,1.08-.18,2.15-.38,3.21-.61,1.03-.22,2.05-.47,3.07-.74.92-.24,1.83-.51,2.73-.79,1.11-.34,2.22-.69,3.32-1.08.73-.26,1.45-.56,2.18-.85,1.24-.49,2.48-.97,3.7-1.54.17-.08.34-.17.51-.25,2.54-1.19,5.05-2.56,7.52-4.06.27.85.54,1.7.83,2.53.27.79.56,1.56.84,2.34.37,1.02.75,2.04,1.14,3.04.33.84.67,1.65,1.01,2.47.37.89.75,1.77,1.15,2.63.39.85.78,1.69,1.18,2.52.37.77.75,1.51,1.14,2.26.45.86.9,1.72,1.37,2.56.36.63.73,1.25,1.09,1.86.53.88,1.05,1.77,1.6,2.61.29.45.61.88.91,1.32,3.2,4.7,6.79,8.78,10.8,12.12.16.13.31.28.48.41.93.75,1.88,1.45,2.85,2.12.25.17.5.35.75.52.96.64,1.94,1.22,2.94,1.78.28.16.56.31.84.46.06.03.13.07.19.1,0,.12-.04.24-.04.37,0,1.78.86,3.35,2.16,4.37.03.02.06.05.09.07.43.32.9.57,1.4.76.09.03.17.05.26.08.52.16,1.06.27,1.63.27.35,0,.7-.04,1.03-.1,1.37-.26,2.54-1.02,3.36-2.09,2.5.6,5.13.95,7.86,1.11.33.94.93,1.94,1.78,3.01.98,1.19,2.28,1.82,3.82,2.03,1.47-.85,2.59-2.01,3.25-3.6.09-.22.13-.48.21-.71.59.09,1.18.18,1.78.29-.3.54-.61,1.07-.83,1.65-.11.28-.09.62.07.88.99,1.6,2.74,2.86,5.24,3.8.25.09.54.09.78-.02.83-.4,1.59-.97,2.26-1.75.34-.39.65-.83.94-1.32.28-.48.54-1.02.78-1.61.78.12,1.56.23,2.34.34.06.07.11.15.18.22.34.37.69.72,1.07,1.05.76.65,1.61,1.2,2.57,1.63.43.19.96.1,1.31-.21.79-.7,1.46-1.44,2.01-2.19,1.93-.02,3.76-.23,5.48-.66.72.58,1.45.86,2.03.49.45-.3.93-.93,1.36-1.72,1.35-.71,2.56-1.66,3.6-2.88,5.05-5.97,3.69-15.49,1.47-26.21,40.45.03,116.24-.27,129.61-3.91,1.58-.43,3.12-.91,4.65-1.42.49-.16.96-.34,1.44-.51,1.04-.37,2.07-.75,3.08-1.16.54-.22,1.08-.44,1.62-.67.95-.4,1.89-.83,2.83-1.26.52-.24,1.04-.48,1.55-.74,1.01-.5,2-1.02,2.98-1.55.4-.22.8-.42,1.2-.64,1.35-.76,2.68-1.56,3.98-2.39.29-.19.57-.39.86-.57,1.01-.66,2.01-1.34,3-2.04.47-.34.93-.69,1.39-1.03.2-.15,11.31-7.42,11.5-7.57,2.11,1.42,7.83,3.58,9.83,4.17,13.56,4,35.59.13,38.22-15.83,4.72-28.62-18.17-93.72-18.33-104.97Z"
  />
  <g>
    <path
      class="cls-2"
      d="m38.15,150.59c-13.86,6.64-26.34,15.9-36.33,29.87-1.14,1.6-1.04,3.78.15,5.34,6.07,8.04,13.98,13.59,24.71,15.35,4.94,12.77,12.96,25.28,24.61,37.48-1.83,7.55-3.17,15.17-3.13,22.93.01,2.68,1.73,5.06,4.27,5.92,18.05,6.14,36.12,2.84,54.22-9.79,18.21.66,35.15-4.95,50.72-17.31l-7.59-45.55-111.62-44.24Z"
    />
    <path
      class="cls-7"
      d="m143.35,226.07s-16.14,24.68-39.56,25.97c-18.08,1-36.73,12.08-55.37,11.08.53,2,1.98,3.67,4.01,4.36,18.05,6.14,36.12,2.84,54.22-9.79,15.6.57,30.25-3.51,43.92-12.44l-7.22-19.18Z"
    />
    <path
      class="cls-7"
      d="m15.14,189.64c-4.12-2.41-8.3-6.67-11.91-11.02-.47.62-.95,1.2-1.41,1.84-1.14,1.6-1.04,3.78.15,5.34,6.07,8.04,13.98,13.59,24.71,15.35,0,0-.76-5.21-11.54-11.51Z"
    />
  </g>
  <g>
    <path class="cls-6" d="m64.93,103.67s-6.78-1.94-8.36-1.29.4,9.45.4,9.45l7.96-8.16Z" />
    <path class="cls-6" d="m61.61,108.67s-8.6-3.67-10.58-2.14,2.14,11.83,2.14,11.83l8.44-9.69Z" />
    <path class="cls-6" d="m57.17,117.15s-10.02-.57-11.47.65,3.03,12.07,3.03,12.07l8.44-12.72Z" />
    <path
      class="cls-2"
      d="m144.1,82.72c4.42,8.94-12.1,26.12-36.9,38.38-24.8,12.26-48.9,15.15-52.9,6.01-8.27-18.89,12.1-26.12,36.9-38.38,24.8-12.26,48.48-14.95,52.9-6.01Z"
    />
  </g>
  <g>
    <path
      class="cls-2"
      d="m449.09,127.91c.82,55.96-24.38,121.06-78.98,135.92-16.9,4.6-133.57,3.87-152.49,3.88-63,.02-101.85-64.5-102.88-134.88C113.7,62.44,187.71,4.28,280.04,2.93c92.33-1.36,168.01,54.6,169.05,124.98Z"
    />
    <path
      class="cls-7"
      d="m370.1,263.83c45-12.25,70.01-58.61,76.96-105.86-60.09,48.63-119.73,56.27-195.32,70.81-24.86,4.78-60.49,8.72-97.11,11.84,16.58,16.81,37.85,27.09,62.98,27.08,18.91,0,135.58.72,152.49-3.88Z"
    />
    <path
      class="cls-11"
      d="m412.89,50.32C381.85,20.87,333.64-.77,280.04.02,187.71,1.38,113.7,59.53,114.74,129.91c.24,16.26,2.52,32.19,6.62,47.1,25.41.52,53.07-1.06,78.16-1.06,79.32,0,154.69-23.58,191.9-51.37,18.45-13.78,22.94-36.54,22.94-53.63,0-7.68.02-12.67-1.48-20.63Z"
    />
  </g>
  <g>
    <path
      class="cls-6"
      d="m473.02,149.42s7.42-8.63,10.72-8.27,4.29,13.63,4.29,13.63l-15.02-5.36Z"
    />
    <path class="cls-4" d="m482.95,152.97l5.09,1.82s-.96-12.78-4.13-13.57l-.96,11.75Z" />
    <ellipse
      class="cls-11"
      cx="454.59"
      cy="201.7"
      rx="58.95"
      ry="27.3"
      transform="translate(52.62 494.54) rotate(-60)"
    />
    <path
      class="cls-6"
      d="m491.09,182.66c0,4.42-2.98,8-7.15,8s-7.11-3.5-7.11-7.92,3.18-7.19,7.35-7.19,6.91,2.69,6.91,7.11Z"
    />
    <path
      class="cls-4"
      d="m479.93,189.41c1.16.78,2.53,1.24,4.01,1.24,1.21,0,2.35-.33,3.36-.87l-1.17-7.73c-.05-.3-.44-.4-.62-.15l-5.58,7.51Z"
    />
    <path
      class="cls-6"
      d="m477.53,159.08c4.88-4.17,9.88-6.18,14.93-7,1.26-.21,2.5.62,2.66,1.88.62,4.92-.14,10.19-2.39,15.83-.28.71-.98,1.23-1.74,1.27-6.95.38-11.62-3.04-13.93-10.37-.18-.57.01-1.23.47-1.62Z"
    />
    <path
      class="cls-4"
      d="m490.99,171.07c.76-.04,1.46-.57,1.74-1.27,2.25-5.64,3.01-10.91,2.39-15.83-.06-.45-.28-.81-.56-1.12l-12.93,15.34c2.43,2.11,5.53,3.09,9.35,2.88Z"
    />
    <path
      class="cls-5"
      d="m441.39,252.49c-9.11-3.52-15.92-8.83-16.4-17.17-.72-12.43,2.37-30.31,6.83-48.71-.29.49-.59.95-.88,1.44-16.28,28.2-18.89,57.17-5.83,64.71,4.43,2.56,10.1,2.26,16.28-.26Z"
    />
  </g>
  <g>
    <path
      class="cls-2"
      d="m236.35,240.65c0,20.16,11.8,42.52,2.67,53.31-8.36,9.87-27.99,1.45-39.01,1.45-28.7,0-45.79-23.75-54.52-57.67-8.15-31.69,3.52-55.74,32.23-55.74s58.64,25.93,58.64,58.64Z"
    />
    <path
      class="cls-7"
      d="m159.92,252.04c-3.09-7.9-9.62-17.3-16.57-25.97.4,3.75,1.11,7.65,2.14,11.67,7.74,30.11,22.09,52.15,45.29,56.74-5.92-5.92-24.01-24.92-30.86-42.45Z"
    />
    <path
      class="cls-6"
      d="m229.18,292.47c.52-1.82,4.88-3.54,7-2.88s-.21,7.72-2.12,8.97-5.41-4.21-4.88-6.09Z"
    />
    <path
      class="cls-6"
      d="m221.95,291.83c-1.58,1.16-2.72,2.58-3.44,4.27-.16.37-.11.83.12,1.17,1.17,1.68,2.67,3,4.58,3.87.43.19.96.1,1.31-.21,1.63-1.46,2.79-3.03,3.35-4.73.12-.37.03-.81-.21-1.12-1.4-1.81-2.95-3.01-4.7-3.46-.34-.09-.73,0-1.02.21Z"
    />
    <path
      class="cls-4"
      d="m209.77,293.6c-1.24,1.24-2.16,2.69-2.78,4.32-.11.28-.09.62.07.88.99,1.6,2.74,2.86,5.24,3.8.25.09.54.09.78-.02,1.66-.8,3.03-2.29,4-4.72.14-.35.05-.78-.21-1.05-2.06-2.12-4.17-3.4-6.34-3.51-.28-.01-.56.11-.76.3Z"
    />
    <path
      class="cls-4"
      d="m198.89,290.77c-.99.11-2.18,3.32-2.18,3.32.12,1.24.85,2.64,2.06,4.16.98,1.19,2.28,1.82,3.82,2.03,1.96-1.13,3.3-2.82,3.76-5.33,0,0-6.08-4.33-7.45-4.18Z"
    />
    <path
      class="cls-4"
      d="m235.69,292.3c0-1-.13-1.95-.33-2.84-2.26-.13-5.72,1.4-6.18,3.01-.52,1.8,2.7,6.86,4.64,6.14,1.13-1.5,1.87-3.75,1.87-6.31Z"
    />
    <path
      class="cls-4"
      d="m221.95,291.83c-1.58,1.16-2.72,2.58-3.44,4.27-.16.37-.11.83.12,1.17,1.17,1.69,2.67,3,4.58,3.87.16.07.34.07.52.06.31-1.28.5-2.69.5-4.2,0-1.92-.29-3.69-.77-5.2-.17-.06-.33-.14-.49-.18-.34-.09-.73,0-1.02.21Z"
    />
    <path
      class="cls-6"
      d="m217.08,297.85c.14-.35.05-.78-.21-1.05-2.06-2.12-4.17-3.4-6.34-3.51-.17,0-.33.05-.49.12l2.67,9.24c.13,0,.25-.03.36-.08,1.66-.8,3.03-2.29,4-4.72Z"
    />
    <path
      class="cls-6"
      d="m206.34,294.95s-6.08-4.33-7.45-4.18c-.07,0-.13.06-.2.09.15,1.23.42,2.53.86,3.84.73,2.19,1.77,4.09,2.95,5.56.03,0,.06.01.08.02,1.96-1.13,3.3-2.82,3.76-5.33Z"
    />
    <path
      class="cls-6"
      d="m190.29,290.78c0,3.07-2.49,5.55-5.55,5.55s-5.55-2.49-5.55-5.55,2.5-5.81,5.55-5.55c.91.08,5.55,2.46,5.55,5.55Z"
    />
    <path
      class="cls-4"
      d="m184.91,290.03c-.76-.09-3.01.98-5.46,2.32.68,2.3,2.78,3.99,5.3,3.99.7,0,1.37-.14,1.99-.38-.46-3.17-1.06-5.82-1.83-5.92Z"
    />
  </g>
  <g>
    <path
      class="cls-11"
      d="m89.75,104.96c-29.38,0-62.42,30.37-62.42,68.53,0,4.43.43,8.75,1.21,12.93l13.17,6.65,1.04,24.39c12.03,15.05,29.78,24.56,48.39,24.56,46.52,0,51.82-29.8,51.82-67.96s-23.82-69.1-53.21-69.1Z"
    />
    <path
      class="cls-10"
      d="m101.94,168.92c0,13.15-9.24,20.72-20.84,20.72s-21.02-10.66-21.02-23.81,9.41-23.81,21.02-23.81c5.27,0,20.84,17.81,20.84,26.89Z"
    />
    <path
      class="cls-3"
      d="m81.1,142.03c-1.67,0-3.28.24-4.83.66-.82,2.95-1.28,6.06-1.28,9.28,0,14.48,8.85,26.83,21.32,31.8,3.5-3.52,5.64-8.53,5.64-14.85,0-9.08-15.57-26.89-20.84-26.89Z"
    />
    <path
      class="cls-1"
      d="m94.73,172.2c-.54,1.45,2.14,3.12,5.87,4.7.86-2.36,1.34-5.02,1.34-7.97,0-.34-.06-.72-.11-1.09-3.69,1.45-6.6,2.99-7.11,4.36Z"
    />
    <path
      class="cls-1"
      d="m82.58,142.4c-1.25,4.44-2.25,8.27-2.15,8.84.12.71,5.9.12,11.79-.66-3.47-3.99-7.11-7.16-9.64-8.17Z"
    />
    <path
      class="cls-9"
      d="m35.85,148.33c2.13,3.78,2.67,8.13,4.43,12.09,1.42,4.08,3.98,7.68,4.84,11.95-3.19-3.07-4.49-7.44-6.23-11.4-1.41-4.08-3.48-8.22-3.03-12.64h0Z"
    />
    <path
      class="cls-9"
      d="m63.67,201.64c2.05,1.73,3.71,3.72,5.33,5.82,4.16,5.01,8.99,9.46,14.4,13.1,0,0,2.92,2.73,2.92,2.73-5.18-1.52-9.14-5.47-13.05-9.02-3.67-3.8-7.75-7.57-9.6-12.63h0Z"
    />
  </g>
</svg>
