<svg
  width="4000"
  height="1200"
  xmlns="http://www.w3.org/2000/svg"
  stroke="null"
  style="vector-effect: non-scaling-stroke"
  xml:space="preserve"
  viewBox="0 0 4000 1200"
>
  <defs stroke="null">
    <clipPath
      stroke="null"
      style="vector-effect: non-scaling-stroke"
      id="clip0"
    >
      <rect
        stroke="null"
        style="vector-effect: non-scaling-stroke"
        id="svg_1"
        height="1191"
        width="1192"
        y="605"
        x="1379"
      />
    </clipPath>
  </defs>
  <g stroke="null">
    <title stroke="null">Layer 1</title>
    <path
      stroke="null"
      id="svg_8"
      fill-rule="evenodd"
      fill="#A16C41"
      d="m2938.87572,360.02252c-6.64351,-17.84306 -26.96747,-26.56012 -45.27927,-19.42267l-96.05546,37.32414l58.27402,-212.01131c2.05713,-7.42955 1.71989,-15.09277 -0.91053,-22.23023c-7.04819,-18.89575 -28.56371,-28.13858 -48.03335,-20.53378l-159.41048,61.89458c-8.81305,3.3929 -15.84999,9.94501 -19.91928,18.31156c-4.1817,8.6575 -4.68755,18.31041 -1.42762,27.14431c6.63227,17.90148 27.06864,26.67696 45.5041,19.53951l92.89671,-36.09505l-58.77987,210.83949c-2.12457,7.60595 -1.8323,15.44443 0.85433,22.69872c5.44071,14.62542 19.46964,23.51774 34.57772,23.51774c4.68755,0 9.49876,-0.87743 14.19755,-2.69072l162.33317,-63.06525c18.3118,-7.13745 27.81056,-27.43755 21.17829,-45.22105z"
    />
    <g stroke="null" id="svg_15">
      <path
        stroke="#FFCB03"
        id="svg_4"
        fill-rule="evenodd"
        fill="#A16C41"
        stroke-miterlimit="8"
        stroke-width="0"
        d="m999.84673,384.71027c37.56,58.68 -276.67,126.12 -388.78,238.6c-112.11,112.49 -186.37,418.14 -251.6,401.78c-65.22,-16.37 47.64,-385.47 154.37,-492.2c106.73,-106.72 448.44,-206.85 486.01,-148.18z"
      />
      <path
        stroke="#FFCB03"
        id="svg_5"
        fill-rule="evenodd"
        fill="#A16C41"
        stroke-miterlimit="8"
        stroke-width="0"
        d="m813.61673,222.10727c37.57,58.678 -276.67,126.113 -388.77,238.603c-112.11,112.48 -186.37,418.13 -251.6,401.77c-65.23,-16.36 47.64,-385.46 154.37,-492.19c106.73,-106.733 448.44,-206.86 486,-148.183z"
      />
      <path
        stroke="#A16C41"
        id="svg_6"
        fill-rule="evenodd"
        fill="#FFCB03"
        stroke-miterlimit="8"
        stroke-width="NaN"
        d="m77.00012,388.87029c53.58,-53.59 582.22,-208.186 630.36,-178.057c48.14,30.129 19.71,347.357 32.1,397.967c12.39,50.61 90.69,-24.62 113.54,6.78c22.86,31.39 -31.06,133.05 -22.53,167.28c8.53,34.23 114.89,-23.19 130.77,1.44c10.42,13.07 19.15,250.2 -43.92,254.46c-63.08,4.26 -39.72,-126.96 -72.72,-154.14c-21.12,-4.62 -102.89,45.64 -122,21.21c-11.06,-11.42 19.37,-132.61 -23.89,-130.92c-43.26,1.69 -157.44,51.01 -193.9,21.47c-36.46,-29.53 4.68,-188.6 -24.87,-198.71c-59.98,-17.47 -301.22,101.8 -335.26,83.29c-34.05,-18.52 -121.27,-238.47 -67.68,-292.07z"
      />
      <path
        stroke="null"
        id="svg_7"
        fill-rule="evenodd"
        fill="#A16C41"
        d="m730.61014,874.63027c-19.28,-8.61 29.95,-21.63 39,-49.15c3.17,-18.61 -21.56,-77.45 -14.86,-85.57c6.69,-8.11 34.41,-2.26 42.94,-17.61c8.53,-15.35 10.44,-49.07 18.45,-64.25c8.02,-15.18 28.72,-26.55 34.75,-14.02c6.04,12.53 -20.58,74.1 1.45,89.2c22.04,15.11 114.9,-23.19 130.78,1.45c10.42,13.07 19.15,250.2 -43.93,254.46c-63.07,4.25 -39.72,-126.96 -72.71,-154.14c-21.12,-4.63 -116.76,64.06 -135.87,39.63z"
      />
    </g>
    <g stroke="null" />
    <g stroke="null">
      <g
        stroke="null"
        fill="#000000"
        transform="translate(0 444) scale(0.1 -0.1)"
      >
        <path
          stroke="null"
          fill="#a16c41"
          d="m13908.91475,-3012.09389l0,-2810.41842l538.35484,0l538.35484,0l-6.52551,2802.87367l-9.78827,2799.1013l-528.56657,11.31712l-531.82933,7.54475l0,-2810.41842z"
        />
        <path
          stroke="null"
          fill="#a16c41"
          d="m30875.24919,-3012.09389l0,-2810.41842l538.35484,0l538.35484,0l6.52551,679.02727l9.78827,679.02727l554.66863,-679.02727l554.66863,-679.02727l766.74781,0l766.74781,0l-796.11262,920.45919c-437.20939,505.49808 -789.5871,935.54868 -783.06159,954.41055c6.52551,18.86187 339.32669,384.78212 737.383,807.28798l724.33197,769.56424l-737.383,11.31712l-737.383,7.54475l-525.30382,-592.26267l-525.30382,-596.03505l-16.31378,1659.84443l-16.31378,1659.84443l-528.56657,11.31712l-531.82933,7.54475l0,-2810.41842z"
        />
        <path
          stroke="null"
          fill="#a16c41"
          d="m11217.14054,-684.5393c-564.4569,-226.34242 -920.09737,-754.47474 -978.82699,-1463.681c-42.41584,-490.40858 81.56892,-928.00393 336.06393,-1184.52535c153.34956,-158.4397 296.91085,-230.1148 864.6305,-437.59535c466.5742,-169.75682 655.81408,-328.19651 655.81408,-554.53894c0,-177.30156 -58.72962,-298.01752 -185.97713,-384.78212c-306.69912,-211.25293 -753.69678,-109.39884 -1174.59238,260.29379c-84.83167,75.44747 -166.40059,135.80545 -179.45161,135.80545c-22.8393,0 -469.83695,-946.8658 -489.41349,-1033.6304c-9.78827,-49.04086 251.23226,-241.43192 489.41349,-362.14788c616.661,-313.10702 1435.61291,-316.87939 1980.49327,-7.54475c218.60469,124.48833 460.04868,373.465 567.71965,584.71793c169.66334,331.96889 244.70675,837.46696 185.97713,1248.6557c-45.67859,331.96889 -117.45924,490.40858 -319.75015,709.20626c-202.29091,218.79768 -388.26804,328.19651 -822.21467,482.86384c-414.37009,147.12257 -557.93138,230.1148 -649.28857,362.14788c-88.09443,128.26071 -88.09443,241.43192 0,369.69262c97.8827,147.12257 241.44399,215.0253 430.68387,215.0253c212.07918,0 339.32669,-45.26848 567.71965,-192.39106c97.8827,-64.13035 182.71437,-113.17121 189.23988,-105.62646c35.89032,52.81323 446.99766,1014.76853 437.20939,1026.08565c-88.09443,90.53697 -515.51555,267.83853 -822.21467,343.28601c-313.22464,79.21985 -874.41877,71.6751 -1083.2352,-11.31712z"
        />
        <path
          stroke="null"
          fill="#a16c41"
          d="m16861.7095,-2276.48101c-567.71965,-101.85409 -1011.45455,-494.18096 -1194.16892,-1056.26464c-234.91848,-724.29575 -117.45924,-1546.67322 296.91085,-2052.1713c309.96188,-377.23737 727.59473,-562.08368 1288.78887,-562.08368c512.25279,0 871.15602,135.80545 1181.1179,441.36772c127.24751,128.26071 368.6915,599.80742 368.6915,724.29575c0,41.49611 -97.8827,52.81323 -499.20176,52.81323c-495.93901,0 -502.46452,0 -580.77068,-98.08172c-368.6915,-456.45722 -1070.18417,-211.25293 -1073.44693,369.69262l0,143.3502l1102.81174,7.54475l1099.54898,11.31712l-9.78827,245.20429c-13.05103,313.10702 -84.83167,645.07591 -189.23988,901.59732c-163.13783,384.78212 -551.40587,731.8405 -933.14839,829.92222c-225.13021,60.35798 -642.76305,79.21985 -858.10499,41.49611zm688.44165,-852.55646c123.98475,-67.90273 225.13021,-211.25293 257.75777,-365.92025l22.8393,-101.85409l-577.50792,0l-577.50792,0l22.8393,101.85409c29.36481,135.80545 130.51026,282.92803 254.49502,358.3755c137.03578,82.99222 450.26041,86.7646 597.08446,7.54475z"
        />
        <path
          stroke="null"
          fill="#a16c41"
          d="m20613.87961,-2276.48101c-567.71965,-101.85409 -1011.45455,-494.18096 -1194.16892,-1056.26464c-234.91848,-724.29575 -117.45924,-1546.67322 296.91085,-2052.1713c309.96188,-377.23737 727.59473,-562.08368 1288.78887,-562.08368c512.25279,0 871.15602,135.80545 1181.1179,441.36772c127.24751,128.26071 368.6915,599.80742 368.6915,724.29575c0,41.49611 -97.8827,52.81323 -499.20176,52.81323c-495.93901,0 -502.46452,0 -580.77068,-98.08172c-368.6915,-456.45722 -1070.18417,-211.25293 -1073.44693,369.69262l0,143.3502l1102.81174,7.54475l1099.54898,11.31712l-9.78827,245.20429c-13.05103,313.10702 -84.83167,645.07591 -189.23988,901.59732c-163.13783,384.78212 -551.40587,731.8405 -933.14839,829.92222c-225.13021,60.35798 -642.76305,79.21985 -858.10499,41.49611zm688.44165,-852.55646c123.98475,-67.90273 225.13021,-211.25293 257.75777,-365.92025l22.8393,-101.85409l-577.50792,0l-577.50792,0l22.8393,101.85409c29.36481,135.80545 130.51026,282.92803 254.49502,358.3755c137.03578,82.99222 450.26041,86.7646 597.08446,7.54475z"
        />
        <path
          stroke="null"
          fill="#a16c41"
          d="m27873.51309,-2325.52187c-469.83695,-162.21207 -792.84986,-471.54671 -995.14077,-939.32106c-156.61232,-369.69262 -199.02815,-671.48252 -150.0868,-1063.80939c91.35719,-769.56424 564.4569,-1373.14403 1213.74546,-1550.4456c120.722,-30.17899 362.16599,-56.58561 567.71965,-56.58561c424.15836,0 701.49267,67.90273 975.56423,237.65954c420.8956,256.52141 737.383,784.65373 809.16364,1339.19267c117.45924,935.54868 -398.05631,1822.0565 -1200.69444,2059.71605c-309.96188,94.30934 -910.3091,79.21985 -1220.27098,-26.40662zm936.41115,-1063.80939c502.46452,-290.47278 502.46452,-1105.3055 0,-1395.77827c-274.07156,-158.4397 -541.6176,-105.62646 -766.74781,143.3502c-156.61232,173.52919 -212.07918,316.87939 -212.07918,554.53894c0,237.65954 55.46686,381.00975 212.07918,554.53894c225.13021,252.74904 489.41349,301.7899 766.74781,143.3502z"
        />
        <path
          stroke="null"
          fill="#a16c41"
          d="m36144.60113,-2276.48101c-567.71965,-101.85409 -1011.45455,-494.18096 -1194.16892,-1056.26464c-234.91848,-724.29575 -117.45924,-1546.67322 296.91085,-2052.1713c309.96188,-377.23737 727.59473,-562.08368 1288.78887,-562.08368c512.25279,0 871.15602,135.80545 1181.1179,441.36772c127.24751,128.26071 368.6915,599.80742 368.6915,724.29575c0,41.49611 -97.8827,52.81323 -499.20176,52.81323c-495.93901,0 -502.46452,0 -580.77068,-98.08172c-368.6915,-456.45722 -1070.18417,-211.25293 -1073.44693,369.69262l0,143.3502l1102.81174,7.54475l1099.54898,11.31712l-9.78827,245.20429c-13.05103,313.10702 -84.83167,645.07591 -189.23988,901.59732c-163.13783,384.78212 -551.40587,731.8405 -933.14839,829.92222c-225.13021,60.35798 -642.76305,79.21985 -858.10499,41.49611zm688.44165,-852.55646c123.98475,-67.90273 225.13021,-211.25293 257.75777,-365.92025l22.8393,-101.85409l-577.50792,0l-577.50792,0l22.8393,101.85409c29.36481,135.80545 130.51026,282.92803 254.49502,358.3755c137.03578,82.99222 450.26041,86.7646 597.08446,7.54475z"
        />
      </g>
    </g>
    <g transform="rotate(-18 2500.53 714.451)" stroke="null">
      <g
        stroke="null"
        fill="#000000"
        transform="matrix(0.0715484 -0.000680287 -0.000643186 -0.0756756 635.7 597.376)"
      >
        <path
          stroke="null"
          fill="#a16c41"
          d="m22831.16277,-1781.21859l0,-4030.8925l1095.50744,0l1095.50744,0l12.52008,1331.68745l18.78013,1325.71575l1126.80765,35.83016c1395.98948,41.80185 1708.9916,125.40554 2234.83517,579.25418c475.76323,412.04679 757.46514,1003.24435 832.58565,1773.5927c118.94081,1140.59328 -394.38268,2221.46964 -1264.52858,2675.31828c-588.44399,298.58463 -926.48629,340.38648 -3130.02125,340.38648l-2021.99373,0l0,-4030.8925zm3618.30456,2179.66779c475.76323,-203.03755 644.78438,-800.20681 375.60255,-1313.77237c-200.32136,-376.21663 -438.20297,-471.76371 -1183.14803,-495.65048l-588.44399,-11.94339l-18.78013,973.38589l-12.52008,967.4142l575.92391,0c438.20297,0 644.78438,-29.85846 851.36578,-119.43385z"
        />
      </g>
    </g>
    <path
      stroke="null"
      id="svg_17"
      fill-rule="evenodd"
      fill="#A16C41"
      d="m2938.87572,360.02252c-6.6435,-17.84305 -26.96747,-26.56011 -45.27927,-19.42266l-96.05546,37.32414l58.27402,-212.01131c2.05713,-7.42955 1.71989,-15.09277 -0.91053,-22.23023c-7.04819,-18.89575 -28.56372,-28.13858 -48.03336,-20.53377l-159.41047,61.89457c-8.81305,3.3929 -15.85,9.94501 -19.91929,18.31156c-4.1817,8.65749 -4.68755,18.31041 -1.42762,27.14431c6.63227,17.90148 27.06864,26.67696 45.5041,19.5395l92.8967,-36.09505l-58.77987,210.8395c-2.12457,7.60595 -1.8323,15.44443 0.85433,22.69872c5.4407,14.62542 19.46964,23.51774 34.57772,23.51774c4.68755,0 9.49875,-0.87743 14.19754,-2.69072l162.33317,-63.06525c18.31181,-7.13745 27.81056,-27.43755 21.17829,-45.22105z"
    />
  </g>
</svg>
